# xmcd
#
# Track frame offsets:
#	150
#	13152
#	24752
#	35567
#	48130
#	57160
#	69830
#	80485
#	91522
#	101282
#	111435
#	120982
#	130825
#	142335
#	154442
#	168360
#	183005
#	198622
#	210192
#	223060
#	234227
#	248365
#	262010
#	281842
#	292657
#	304102
#	316857
#	329232
#	347065
#
# Disc length: 4800 seconds
#
# Revision: 2
# Processed by: cddbd v1.4PL0 Copyright (c) Steve Scherf et al.
# Submitted via: MusicWizard 6.0.0
#
DISCID=9312be1d
DTITLE=Johnny Cash - The Man In Black, 1963-1969 CD 4/6
DYEAR=1995
DGENRE=Country
TTITLE0=Thunderball
TTITLE1=The Sons Of Katie Elder
TTITLE2=Put The Sugar To Bed
TTITLE3=Red Velvet
TTITLE4=Rosanna's Going Wild
TTITLE5=The Wind Changes
TTITLE6=On The Line
TTITLE7=Roll Call
TTITLE8=You Beat All I Ever Saw
TTITLE9=I Tremble For You
TTITLE10=Cattle Call (instrumental)
TTITLE11=Bill's Theme (instrumental)
TTITLE12=Outside Looking In (instrumental)
TTITLE13=Spanish Harlem (instrumental)
TTITLE14=The Folk Singer
TTITLE15=Southwind
TTITLE16=The Devil To Pay
TTITLE17='Cause I Love You
TTITLE18=See Ruby Fall
TTITLE19=Route #1, Box 144
TTITLE20=Sing A Traveling Song
TTITLE21=If I Were A Carpenter
TTITLE22=To Beat The Devil
TTITLE23=Blistered
TTITLE24=Wrinkled, Crinkled, Wadded Dollar Bill
TTITLE25=I've Got A Thing About Trains
TTITLE26=Six White Horses
TTITLE27=Jesus Was A Carpenter
TTITLE28=The Man In Black
EXTD=(c)1995 Bear Family Germany\nOriginal Columbia Records
EXTT0=
EXTT1=
EXTT2=
EXTT3=
EXTT4=
EXTT5=
EXTT6=
EXTT7=
EXTT8=
EXTT9=
EXTT10=
EXTT11=
EXTT12=
EXTT13=
EXTT14=
EXTT15=
EXTT16=
EXTT17=
EXTT18=
EXTT19=
EXTT20=
EXTT21=
EXTT22=
EXTT23=
EXTT24=
EXTT25=
EXTT26=
EXTT27=
EXTT28=
PLAYORDER=
